<svg width="1200" height="420" viewBox="0 0 1200 420" fill="none" xmlns="http://www.w3.org/2000/svg">
  <defs>
    <pattern id="dot-grid" width="30" height="30" patternUnits="userSpaceOnUse">
      <circle cx="2" cy="2" r="1.5" fill="#EFE7D8" />
    </pattern>
  </defs>
  
  <rect width="100%" height="100%" fill="#F8F5EE" />
  <rect width="100%" height="100%" fill="url(#dot-grid)" />
  
  <rect x="24" y="24" width="1152" height="372" rx="16" fill="#111827" />
  <rect x="18" y="18" width="1152" height="372" rx="16" fill="#F8F5EE" stroke="#111827" stroke-width="3" />
  <rect x="30" y="30" width="1128" height="348" rx="12" stroke="#EFE7D8" stroke-width="1.5" stroke-dasharray="6 4" fill="none" />
  
  <!-- Giant Background Lesson Number -->
  <text x="1100" y="330" font-family="Inter, system-ui, sans-serif" font-size="280" font-weight="900" fill="#EFE7D8" fill-opacity="0.6" text-anchor="end">02</text>
  
  <g transform="translate(80, 85)">
    <text x="0" y="0" font-family="'JetBrains Mono', monospace" font-size="13" font-weight="700" fill="#7C3AED" letter-spacing="1.5">LESSON 02 · CORE WORKFLOWS</text>
    
    <!-- Title wrap protection -->
    <text x="0" y="60" font-family="Inter, system-ui, sans-serif" font-size="44" font-weight="900" fill="#111827">Working with Multiple Agents</text>
    
    <!-- Promise -->
    <text x="0" y="115" font-family="Inter, system-ui, sans-serif" font-size="18" font-weight="500" fill="#4B5563" width="700">Structure for coordinating agents without chaos.</text>
    
    <g transform="translate(0, 180)">
      <text x="0" y="0" font-family="'JetBrains Mono', monospace" font-size="12" font-weight="700" fill="#4B5563" letter-spacing="1">SIGNALS ACTIVE IN LESSON:</text>
      <g transform="translate(0, 15)">
        
      <g transform="translate(0, 0)">
        <rect x="0" y="0" width="166" height="32" rx="16" fill="#111827" />
        <rect x="1" y="1" width="164" height="30" rx="15" stroke="#E879F9" stroke-width="2" />
        <text x="83" y="20" font-family="Inter, sans-serif" font-size="11" font-weight="700" fill="#E879F9" text-anchor="middle" letter-spacing="0.5">MENTAL MODEL</text>
      </g>
      <g transform="translate(181, 0)">
        <rect x="0" y="0" width="152" height="32" rx="16" fill="#111827" />
        <rect x="1" y="1" width="150" height="30" rx="15" stroke="#EF4444" stroke-width="2" />
        <text x="76" y="20" font-family="Inter, sans-serif" font-size="11" font-weight="700" fill="#EF4444" text-anchor="middle" letter-spacing="0.5">DON'T BREAK</text>
      </g>
      <g transform="translate(348, 0)">
        <rect x="0" y="0" width="108" height="32" rx="16" fill="#111827" />
        <rect x="1" y="1" width="106" height="30" rx="15" stroke="#38BDF8" stroke-width="2" />
        <text x="54" y="20" font-family="Inter, sans-serif" font-size="11" font-weight="700" fill="#38BDF8" text-anchor="middle" letter-spacing="0.5">TRY IT</text>
      </g>
      </g>
    </g>
  </g>
</svg>